<!-- Generator: Adobe Illustrator 19.2.1, SVG Export Plug-In  -->
<svg version="1.1"
	 xmlns="http://www.w3.org/2000/svg" xmlns:xlink="http://www.w3.org/1999/xlink" xmlns:a="http://ns.adobe.com/AdobeSVGViewerExtensions/3.0/"
	 x="0px" y="0px" width="973.7px" height="368.2px" viewBox="0 0 973.7 368.2" style="enable-background:new 0 0 973.7 368.2;"
	 xml:space="preserve">
<style type="text/css">
	.st0{fill:#222944;}
	.st1{fill:#FF6B00;}
</style>
<defs>
</defs>
<g>
	<path class="st0" d="M0,219.6c0-1.7,1.4-3.2,3.2-3.2h56.4c15.3,0,26.9,3.9,34.7,11.8c5.9,5.9,8.9,13.3,8.9,22v0.4
		c0,3.9-0.5,7.5-1.6,10.6c-1.1,3.2-2.5,5.9-4.2,8.2c-1.7,2.3-3.7,4.4-6,6.2c-0.6,0.5-1.2,0.9-1.8,1.4c-2,1.4-1.8,4.4,0.4,5.5
		c5.2,2.4,9.7,5.4,13.3,9.1c4.9,4.9,7.3,11.9,7.3,20.9v0.4c0,5.9-1.2,11.2-3.5,15.7c-2.3,4.6-5.7,8.3-10,11.4
		c-4.3,3-9.5,5.3-15.5,6.9c-6,1.6-12.7,2.4-20.2,2.4H3.2c-1.7,0-3.2-1.4-3.2-3.2V219.6z M54.8,272.3c7.6,0,13.7-1.5,18.2-4.4
		c4.6-3,6.8-7.4,6.8-13.5V254c0-5.3-2-9.4-6-12.4c-4-3-9.8-4.4-17.4-4.4H26.1c-1.7,0-3.2,1.4-3.2,3.2v28.8c0,1.7,1.4,3.2,3.2,3.2
		H54.8z M61.6,328.3c8,0,14.2-1.5,18.8-4.5c4.5-3,6.8-7.5,6.8-13.6v-0.4c0-5.7-2.2-10-6.7-13.1c-4.5-3.1-11.3-4.6-20.6-4.6H26.1
		c-1.7,0-3.2,1.4-3.2,3.2v29.9c0,1.7,1.4,3.2,3.2,3.2H61.6z"/>
	<path class="st0" d="M229.4,215.2h16.6c1.9,0,3.5,1.6,3.5,3.5v126.9c0,1.9-1.6,3.5-3.5,3.5h-16.6c-1.9,0-3.5-1.6-3.5-3.5V218.7
		C225.9,216.8,227.5,215.2,229.4,215.2"/>
	<path class="st0" d="M270.9,215.2h16.6c1.9,0,3.5,1.6,3.5,3.5v126.9c0,1.9-1.6,3.5-3.5,3.5h-16.6c-1.9,0-3.5-1.6-3.5-3.5V218.7
		C267.3,216.8,268.9,215.2,270.9,215.2"/>
	<path class="st0" d="M308.8,215.2h11.4c6.6,0,11.9,5.3,11.9,11.9v37.5c2.4-2.7,5.9-5.3,10.5-7.8c4.6-2.5,10.5-3.8,17.8-3.8
		c5.8,0,10.9,0.9,15.5,2.8c4.5,1.9,8.3,4.5,11.3,7.9c3,3.4,5.3,7.5,6.9,12.3c1.6,4.8,2.4,10.1,2.4,15.9v54c0,1.8-1.5,3.3-3.3,3.3
		h-17.2c-1.8,0-3.3-1.5-3.3-3.3v-53.8c0-6-1.6-10.7-4.9-14c-3.3-3.3-7.5-4.9-12.7-4.9c-3.2,0-6.2,0.6-9,1.9c-2.8,1.3-5.2,3-7.2,5.3
		c-2,2.3-3.6,4.9-4.7,7.9c-1.1,3-1.7,6.3-1.7,9.7v47.7c0,1.8-1.5,3.3-3.3,3.3H312c-1.8,0-3.3-1.5-3.3-3.3V231.6V215.2z"/>
	<path class="st0" d="M593.7,255h14.9c2.1,0,3.9,1.6,4,3.8l0.4,6.9c1.2-1.3,2.6-2.7,4.3-4.2c1.7-1.5,3.7-2.8,6-4.1
		c2.3-1.3,5-2.3,7.9-3.1c2.9-0.8,6.3-1.2,10-1.2c11.8,0,20.7,3.5,26.9,10.5c6.2,7,9.2,16.5,9.2,28.4v53c0,2.3-1.9,4.2-4.2,4.2h-15.3
		c-2.3,0-4.2-1.9-4.2-4.2v-52.8c0-6-1.6-10.7-4.9-14c-3.3-3.3-7.5-4.9-12.8-4.9c-3.2,0-6.2,0.6-9,1.9c-2.8,1.3-5.2,3-7.2,5.3
		c-2,2.3-3.6,4.9-4.7,7.9c-1.1,3-1.7,6.3-1.7,9.7v46.8c0,2.3-1.9,4.2-4.2,4.2h-15.3c-2.3,0-4.2-1.9-4.2-4.2v-86
		C589.7,256.8,591.5,255,593.7,255"/>
	<path class="st0" d="M703.4,263.5c0,1.5-0.4,2.8-1.1,4.1c-0.7,1.3-1.7,2.3-3,3c-1.3,0.7-2.6,1.1-4.1,1.1c-1.5,0-2.8-0.4-4.1-1.1
		c-1.3-0.7-2.3-1.7-3-3c-0.7-1.3-1.1-2.6-1.1-4.1c0-1.5,0.4-2.8,1.1-4.1c0.7-1.3,1.7-2.3,3-3c1.3-0.7,2.6-1.1,4.1-1.1
		c1.5,0,2.8,0.4,4.1,1.1c1.3,0.7,2.3,1.7,3,3C703.1,260.7,703.4,262.1,703.4,263.5 M702.3,263.5c0-1.2-0.3-2.4-0.9-3.5
		c-0.6-1.1-1.5-2-2.6-2.6c-1.1-0.6-2.3-0.9-3.5-0.9c-1.3,0-2.4,0.3-3.5,0.9c-1.1,0.6-2,1.5-2.6,2.6c-0.6,1.1-0.9,2.3-0.9,3.5
		c0,1.3,0.3,2.4,0.9,3.5c0.6,1.1,1.5,1.9,2.6,2.6c1.1,0.6,2.3,0.9,3.5,0.9c1.2,0,2.4-0.3,3.5-0.9c1.1-0.6,2-1.5,2.6-2.6
		C702,266,702.3,264.8,702.3,263.5 M691.9,258.8h3.9c0.9,0,1.6,0.1,2,0.3c0.4,0.2,0.7,0.5,1,0.9c0.3,0.4,0.4,0.9,0.4,1.5
		c0,0.5-0.1,0.9-0.3,1.2c-0.1,0.3-0.4,0.5-0.9,0.8c0.4,0.2,0.7,0.4,0.9,0.7c0.1,0.3,0.2,0.7,0.2,1.4v1.1c0,0.5,0.1,0.9,0.3,1.2
		l0.2,0.3h-1.7c-0.1-0.4-0.2-0.8-0.2-1.4l-0.1-1.1c0-0.4-0.1-0.7-0.2-0.9c-0.1-0.2-0.3-0.3-0.5-0.4c-0.2-0.1-0.6-0.1-1.2-0.1h-2.4
		v3.9h-1.5V258.8z M693.3,260.2v2.8h2.3c0.7,0,1.2-0.1,1.4-0.2c0.4-0.2,0.6-0.6,0.6-1.2c0-0.5-0.1-0.8-0.4-1
		c-0.3-0.2-0.8-0.3-1.5-0.3H693.3z"/>
	<path class="st0" d="M520.4,254.7h14.8c2.2,0,3.9,1.7,4,3.8l0.4,8c1.1-1.3,2.4-2.8,4.1-4.4c1.7-1.6,3.6-3.1,5.9-4.4
		c2.3-1.3,4.9-2.5,7.9-3.4c3-0.9,6.5-1.4,10.3-1.4c2.3,0,4.3,0.1,6.1,0.4c0.8,0.1,1.6,0.3,2.3,0.5c1.8,0.4,2.9,2.2,2.5,4l-3.4,15.6
		c-0.4,1.9-2.3,3-4.1,2.5c-0.5-0.1-1.1-0.2-1.6-0.3c-1.7-0.3-3.6-0.4-5.9-0.4c-3.2,0-6.3,0.5-9.2,1.6c-2.9,1.1-5.5,2.6-7.6,4.6
		c-2.1,2-3.8,4.4-5.1,7.2c-1.3,2.8-1.9,6-1.9,9.4v46.8c0,2.2-1.8,4-4,4h-15.7c-2.2,0-4-1.8-4-4v-86.2
		C516.3,256.5,518.2,254.7,520.4,254.7"/>
	<path class="st0" d="M190,256.4c-2,0-3.7,1.6-3.7,3.7v45.8c0,12.5-9,20.9-19.9,20.9c-2.1,0-3.5,0-4.4,0c-10.9,0-19.9-8.4-19.9-20.9
		v-45.8c0-2-1.6-3.7-3.7-3.7H124c-2,0-3.7,1.6-3.7,3.7v50.8c0,22.1,20.2,37.4,41.5,37.6v0h0.2c0.1,0,0.2,0,0.3,0v0h3.9v0
		c0.1,0,0.2,0,0.3,0h0.5v0c21.2-0.4,41.2-15.6,41.2-37.6v-50.8c0-2-1.6-3.7-3.7-3.7H190z"/>
	<path class="st0" d="M406.2,302.3c0-6.8,1.2-13.3,3.7-19.4c2.5-6.1,5.9-11.4,10.3-16c4.4-4.5,9.7-8.2,16-10.8
		c6.2-2.7,13.1-4,20.6-4c7.5,0,14.4,1.3,20.6,4c6.2,2.7,11.5,6.3,16,10.8c4.4,4.6,7.9,9.9,10.3,16c2.5,6.1,3.7,12.5,3.7,19.4
		c0,6.8-1.2,13.3-3.7,19.4c-2.5,6.1-5.9,11.4-10.3,16.1c-4.4,4.6-9.7,8.3-16,10.9c-6.2,2.7-13.1,4-20.6,4c-7.5,0-14.4-1.3-20.6-4
		c-6.2-2.7-11.5-6.3-16-10.9c-4.4-4.6-7.9-10-10.3-16.1C407.4,315.6,406.2,309.2,406.2,302.3 M456.8,332.3c4.5,0,8.5-0.9,11.8-2.7
		c3.3-1.8,6.1-4.2,8.3-7.1c2.2-2.9,3.8-6.2,4.9-9.6c1.1-3.5,1.6-7,1.6-10.4c0-3.3-0.5-6.8-1.6-10.3c-1.1-3.5-2.7-6.8-4.9-9.6
		c-2.2-2.9-5-5.2-8.3-7c-3.3-1.8-7.3-2.7-11.8-2.7c-4.6,0-8.5,0.9-11.8,2.7c-3.3,1.8-6.1,4.2-8.3,7c-2.2,2.9-3.8,6.1-4.9,9.6
		c-1.1,3.5-1.6,7-1.6,10.3c0,3.5,0.5,7,1.6,10.4c1.1,3.5,2.7,6.7,4.9,9.6c2.2,2.9,5,5.3,8.3,7.1
		C448.3,331.4,452.2,332.3,456.8,332.3"/>
	<path class="st1" d="M842.5,321.5c3.5,4.3,8.3,7.4,11.8,11.8c4.7,5.8,12.3,22.9,12.3,24.5c0,3.9-3.1,3.7-6.2,5.4
		c-1.5,0.5-2.3,2.1-3.7-0.3c-0.7-0.5-1.6-0.7-2.5-0.3c-0.9,0.4-0.8,1.7-0.7,3c0.1,0.8-0.4,1.6-1.2,1.9c-2.6,0.8-5.2,1-8.1,0.1
		c-2.3-0.7-3.9-0.8-4.6-4.3c0-0.1-0.1-0.2-0.1-0.3c-4.1-11,4.3-4.6-11.9-33.4c-0.2-0.5-0.4-1-0.6-1.5c-1.4-5-4.2-9.6-8.8-12.4
		c-2.8-1.7-5-4.2-6.3-7.4c-2.9-7.1-7.9-11.5-14.4-14.1c-4.3-1.7-8.6-3.2-12.9-5c-9.7-4.1-21.1-11.4-29.5-24.1
		c-0.4-0.5-0.8-1.1-1.1-1.7c-0.7-1.4-6.7-8.6-5.4-8.1c12.7,5.3,42.1,10.5,58.9,12.3c2.5,0.3,4.8,1.8,5.7,4.2
		c0.1,0.3,1.4,2.5,1.6,2.8c5.1,8,5.4,9.3,7.5,12.2c3.3,4.6,7.9,8.8,8.7,14.5C832.3,310.4,837.8,315.8,842.5,321.5 M972.6,212.8
		c-0.3-0.4-1.1-0.8-1-1.7c0.2-3.1-1.3-2.1-2.5-1.4c-3.9,2.6-9.1,3.6-10.4,10.1c-0.3,1.5-1.7,2-2.7,2.6c-10.3,6.1-21.5-1.2-24.3-15.9
		c-1.4-7.7-3.3-15.1-6.4-22.1c-1.6-3.8-6.5-8.8-8.8-12.7c-0.4-0.7-0.6-1.4-0.6-2.2c-0.1-4.1-1.8-13.4-12.9-19.8
		c-0.1-0.1-0.2-0.1-0.2-0.2c-13.5-9.8-42.6-20-58.2-24.7c-6-1.6-7.6,2.2-7.7,4.6c0,0.5,0,0.9,0.2,1.4c0.3,1.1,1,3.3,1,3.4
		c3.7,14.1,8.5,33.7,5.7,32.9c-2.9-0.8-10.1-41.6-27.2-53.4c-0.1-0.1-0.2-0.2-0.3-0.3c-11.1-10.3-34.2-15.1-42-16.8
		c-1-0.2-1.9-0.8-2.6-1.6c-4.6-6.1-11.7-8-22.9-9.8c-4.6-0.8-8.6-1.3-12-1.7c-2.8-0.3-4.6-3.1-3.7-5.8l0,0c0.4-1.1,0.4-3.4-0.4-3.6
		c-0.8-0.3-3.4,0.8-5.6,1.1c-1.5,0.2-3.2-0.8-3.2-0.8c-0.5-0.3,0.8,0.8,0.2,0.3c-6.4-6.1,9.6-11.7,6.1-12c-1.2-0.1-2.4-0.1-3.6-0.1
		c-4.9-0.1-9.4,0.2-13.1,0.8c-1,0.1-1.6-0.8-1.5-1.6c0-0.4,0.2-0.8,0.7-1c21.1-11.4,29-24.5,29-24.5s6.4-10.4-8.5-17.3
		c-2.8-1.3-6.5-2.5-11-3.5c-12.9-2.7-24.4-7-33.4-10.8c-3.1-1.4-6-2.7-8.4-3.9c-0.1,0-0.7-0.3-1.2-0.5c-1.4-0.5-2.6-0.1-3.3,1.6
		c-1.2,2.9,2.8,4.4,4.9,6c8.8,6.9,18.9,11.2,28,17.2c5.8,3.7,5.9,5.4,0.6,9c-7.7,5.3-16.4,8.6-25.1,11.9c-0.5,0.2-0.9,0.3-1.4,0.3
		c-4.6-3-9.2-3.7-13.5-2.9c-7.7,0.3-14.8,4.6-18.7,11.8c-0.8,1.5-2.5,2.4-4.2,2.2c-0.3,0-0.6,0-0.9,0c-0.6-0.1-1.2-0.1-1.7-0.1
		c-18.9,1.5-22.6,9.2-23.3,12.5c-0.2,1-0.8,1.8-1.7,2.2c-40.6,17.1-69.1,4.3-78.7-1.3c-0.1,0-0.1-0.1-0.2-0.1
		c-1.2-0.7-2.7,0.4-2.2,1.8c9,22.9,55.5,24.7,68.5,24.8c0.6,0,1.1,0,1.5,0c1,0,1.8,1,1.4,1.9c-3.3,9.6-7.3,15.8-9.8,19.3
		c-1.2,1.7-2.2,3.6-2.8,5.6l-0.3,0.8c-1.1,3.5-1.1,7.3,0.1,10.8c0.3,0.9,0.3,1.8,0.1,2.7c-0.1,0.5-0.2,0.8-0.2,1.2
		c0,0-0.1,0.9,0.1,1.9c2.4,14.8,10.5,18,10.5,18s1.4,0.8,6.7,0.6c12.7-0.6,33.9-3.6,39.2-4c0.6,0,1.1,0,1.7,0.2l0.3,0.1
		c0.4,0.1,0.8,0.2,1.1,0.4c18.3,9.5,45.6,39.1,55.3,56.2c0.6,1,1.1,2.1,1.7,3.1c4.6,8.7,9.4,15.3,17.3,21.1c0.9,0.6,3.4,2.5,7.4,4.8
		c5.1,2.9,9.2,4.5,12.5,5.9c8.9,3.6,16.2,5.4,21.6,6.8c2.3,0.6,3.8,0.9,4.8,1.1c4.1,0.9,7.9,1.4,12.6,2c17.7,2.3,25.9,1.4,29.1,7
		c0.2,0.3,0.8,2.4,1.1,3.2c0,0.1,0.1,0.2,0.1,0.3c4.3,12.7,7.1,14.2,9.1,20c0.9,2.7,2.4,4.3,4.9,5c3.9,1.2,7.4,3.3,9,7.6
		c3.7,9.8,10.7,17.4,19.9,19.9c10.1,2.8,14.7,1.9,20.8-6.5c2.3-3.1,2.4-6.1,0.6-9.3c-3.6-6.4-9-9.5-15.6-10.3
		c-3.1-0.4-6.1-2-6.6-5.2c-0.7-5.4-3.5-8.5-6.7-11.9c-3.2-3.3-2.4-7.9,1.2-10c0.9-0.6,11.7-9.1,16.1-11.3
		c1.6-0.8,10.8-4.1,11.1-10.6c-1.3-15.6,1.2-26.7,2.4-26.6c0.7,0.1-0.5,5.2,1.5,14.9c0.1,0.5,0.2,1,0.4,1.4c0,0,0,0,0,0
		c1.9,11.2,15.3,28.8,21.8,36.3c0.3,0.4,0.6,0.8,0.8,1.3c1.3,3.5,3.1,6.7,5.2,9.7c0.9,1.2,1.8,3.4,2.1,4.9
		c2.1,12.5,8.1,23.6,9.3,36.3c0.5,4.8,1.6,10.7,0.9,12.9c-0.1,0.5-0.3,1-0.2,1.5c0.3,3.4,1.4,11.1,2.7,11.7c1.4,0.7,7.9,2,10.9-1.3
		c0.2-0.3,0.4-0.6,0.4-1c0.6-5.5,2.8-3.1,3.9-1.6c0.3,0.5,0.9,0.6,1.4,0.4c2.7-1,4-2.1,5.6-4.1c0.2-0.2,0.3-0.5,0.4-0.9
		c0.9-4.7,1.1-9.3-1.1-13.7c-2-3.9-4.3-7.4-6.9-10.7c-6.1-8-9.6-17.1-7.1-28.5c1.1-5,0-9.5-2.7-13.3c-1.9-2.6-2.1-5.1-1.4-8.6
		c2.1-10.8,2.8-21.7,1.7-32.7c-0.2-1.7-1.1-3.6,0.4-4.9c1.4-1.3,2.9-0.1,4.2,0.6c6.6,3.2,13,2.3,19.1-1.6c1.4-0.9,2.8-1.8,4.5-1.8
		c7.1,0,10.4-4.7,10.9-7.7C973.8,216.8,973.7,214.3,972.6,212.8"/>
</g>
</svg>
